<?xml version="1.0" standalone="no"?>
<!DOCTYPE svg PUBLIC "-//W3C//DTD SVG 20010904//EN"
 "http://www.w3.org/TR/2001/REC-SVG-20010904/DTD/svg10.dtd">
<svg version="1.0" xmlns="http://www.w3.org/2000/svg"
 width="700.000000pt" height="700.000000pt" viewBox="0 0 700.000000 700.000000"
 preserveAspectRatio="xMidYMid meet">
<metadata>
Created by potrace 1.14, written by Peter Selinger 2001-2017
</metadata>
<g transform="translate(0.000000,700.000000) scale(0.100000,-0.100000)"
fill="#000000" stroke="none">
<path d="M878 5993 l-28 -4 0 -143 0 -143 113 -7 c227 -13 297 -31 393 -96 88
-61 126 -139 415 -838 256 -618 299 -724 299 -735 0 -31 -262 41 -380 104 -73
39 -163 118 -184 163 -19 40 -20 112 -3 143 7 12 41 54 76 93 l63 71 -53 125
c-57 136 -83 168 -128 158 -72 -17 -323 -99 -411 -134 -446 -178 -645 -390
-628 -667 9 -129 93 -257 229 -351 76 -52 238 -128 363 -171 463 -160 1045
-247 2456 -366 228 -19 519 -44 645 -56 841 -75 1245 -197 1341 -404 31 -65
30 -118 -2 -183 -82 -165 -406 -304 -890 -383 l-140 -23 -27 -65 c-34 -84 -41
-117 -28 -125 21 -13 450 35 741 84 507 85 938 221 1187 376 107 66 221 181
262 265 84 172 59 352 -69 492 -195 214 -637 376 -1349 496 -143 24 -239 45
-248 54 -18 18 -7 52 140 421 104 261 110 279 93 292 -21 15 -250 71 -311 76
l-40 3 -112 -280 c-62 -154 -131 -324 -154 -377 l-41 -98 -58 0 c-85 0 -1029
79 -1146 96 -52 7 -57 11 -81 59 -51 102 -536 1286 -583 1425 -55 162 -51 224
19 283 55 46 148 61 459 72 l182 7 0 149 0 149 -1177 -1 c-648 -1 -1190 -4
-1205 -6z"/>
<path d="M4293 5993 c-23 -4 -23 -7 -23 -148 l0 -143 153 -7 c83 -4 184 -11
222 -16 132 -17 256 -105 308 -216 19 -43 22 -64 21 -203 0 -161 -19 -289 -48
-318 -12 -12 -38 -11 -177 7 -343 44 -803 75 -1363 92 -202 6 -388 8 -412 4
-53 -8 -55 -17 -17 -114 l26 -68 321 -6 c696 -13 1379 -102 1913 -248 414
-114 574 -220 769 -508 l88 -131 134 0 135 0 -6 158 c-3 86 -16 315 -28 507
-18 287 -24 352 -37 363 -9 6 -42 12 -73 12 l-58 0 -94 -112 c-139 -166 -121
-156 -225 -135 -214 44 -420 89 -450 99 -30 9 -33 13 -27 37 14 57 101 262
161 381 76 150 144 243 219 299 114 86 169 104 348 116 l97 7 0 149 0 149
-927 -1 c-511 -1 -938 -4 -950 -6z"/>
<path d="M2474 3093 c-8 -6 24 -91 98 -268 60 -143 175 -417 255 -610 179
-433 209 -499 263 -566 54 -69 63 -89 111 -273 40 -153 70 -240 120 -353 l28
-63 195 0 c177 0 196 2 205 18 34 63 759 1867 767 1909 6 30 5 30 -48 36 -29
4 -110 10 -179 13 -126 7 -127 7 -143 -17 -8 -14 -67 -153 -130 -309 -63 -157
-121 -301 -130 -320 l-15 -35 -27 60 c-14 33 -75 177 -134 320 -60 143 -118
283 -130 312 -26 61 10 53 -405 88 -165 14 -356 32 -425 39 -197 22 -264 27
-276 19z"/>
<path d="M560 3053 c-14 -2 -35 -6 -47 -8 l-23 -5 0 -539 0 -538 73 -6 c77 -7
133 2 170 26 12 8 51 41 87 73 92 82 219 174 240 174 10 0 109 -22 221 -50
343 -83 770 -156 1141 -195 134 -14 298 -20 298 -12 0 23 -74 197 -84 197 -29
0 -437 80 -541 106 -539 135 -978 377 -1245 688 -69 81 -73 84 -123 90 -54 6
-125 6 -167 -1z"/>
</g>
</svg>
