<?xml version="1.0" standalone="no"?>
<!DOCTYPE svg PUBLIC "-//W3C//DTD SVG 20010904//EN"
 "http://www.w3.org/TR/2001/REC-SVG-20010904/DTD/svg10.dtd">
<svg version="1.0" xmlns="http://www.w3.org/2000/svg"
 width="520.000000pt" height="520.000000pt" viewBox="0 0 520.000000 520.000000"
 preserveAspectRatio="xMidYMid meet">

<g transform="translate(0.000000,520.000000) scale(0.100000,-0.100000)"
fill="#000000" stroke="none">
<rect width="5200" height="5200" x="0" y="0" fill="#EAAD29" />
<path d="M634 4447 c-2 -7 -3 -58 -2 -113 l3 -99 115 -6 c136 -8 179 -18 243
-59 79 -50 101 -92 297 -570 51 -124 128 -310 171 -413 44 -104 79 -193 79
-199 0 -22 -183 28 -283 79 -68 34 -135 98 -146 140 -16 57 -3 93 56 152 l54
54 -44 106 c-47 115 -54 121 -116 103 -255 -74 -401 -134 -520 -212 -154 -101
-222 -201 -229 -336 -14 -247 249 -415 833 -533 91 -19 257 -45 455 -71 123
-16 423 -48 610 -65 96 -8 229 -20 295 -25 66 -6 167 -15 225 -20 58 -5 166
-14 240 -20 581 -46 901 -119 1032 -238 114 -103 85 -234 -71 -326 -119 -70
-311 -128 -535 -164 l-109 -17 -28 -67 c-18 -43 -24 -70 -17 -74 13 -8 128 2
325 27 446 57 799 150 1043 275 197 101 300 233 300 383 0 246 -257 410 -850
542 -52 12 -171 34 -265 48 -168 27 -170 27 -167 52 2 24 38 120 138 366 30
72 54 136 54 141 0 10 -35 21 -174 52 -49 11 -93 17 -97 13 -4 -4 -56 -129
-114 -278 -59 -148 -110 -274 -115 -279 -9 -9 -167 1 -475 29 -82 8 -219 20
-304 27 -135 11 -155 15 -167 33 -7 11 -55 124 -107 250 -52 127 -149 363
-216 525 -153 370 -167 419 -137 479 35 66 93 82 321 90 l190 6 0 110 0 110
-893 3 c-734 2 -893 0 -898 -11z"/>
<path d="M3174 4447 c-2 -7 -3 -58 -2 -113 l3 -99 145 -6 c161 -7 194 -15 263
-59 102 -65 137 -175 113 -352 -8 -57 -20 -116 -26 -132 -9 -25 -14 -27 -48
-22 -252 39 -709 72 -1139 82 -264 6 -303 5 -308 -8 -3 -8 5 -41 19 -72 l25
-56 159 0 c442 0 932 -54 1337 -146 433 -99 578 -181 732 -416 l64 -98 101 0
101 0 -6 148 c-4 81 -13 246 -22 367 -8 121 -15 228 -15 238 0 14 -9 17 -55
17 l-55 0 -76 -92 c-42 -51 -81 -96 -86 -99 -5 -3 -35 0 -66 7 -31 8 -124 27
-207 44 -82 17 -153 34 -158 39 -9 9 80 228 135 331 56 105 103 164 168 208
78 55 111 65 219 71 l96 6 0 110 0 110 -703 3 c-577 2 -703 0 -708 -11z"/>
<path d="M1830 2295 c0 -5 25 -65 175 -420 23 -55 89 -214 146 -353 86 -210
110 -261 144 -296 42 -45 58 -87 90 -236 9 -41 35 -120 58 -175 l43 -100 148
0 148 0 158 390 c87 215 163 401 168 415 15 33 131 321 198 490 30 74 54 141
54 148 0 6 -8 12 -17 12 -10 0 -69 5 -132 11 -92 8 -116 8 -126 -3 -7 -7 -41
-85 -75 -173 -35 -88 -79 -198 -98 -244 l-35 -84 -17 34 c-10 19 -52 117 -93
219 -42 102 -87 211 -101 242 l-25 56 -53 6 c-141 13 -281 26 -358 31 -47 4
-139 13 -205 21 -124 15 -195 18 -195 9z"/>
<path d="M366 2255 c-3 -8 -4 -192 -3 -407 l2 -393 73 -3 c76 -3 95 5 154 60
53 52 179 148 192 148 9 0 64 -13 123 -29 200 -54 477 -106 758 -141 223 -28
355 -36 355 -22 0 7 -12 41 -26 77 -19 48 -32 66 -48 69 -11 2 -79 14 -151 26
-439 75 -770 212 -1025 425 -68 57 -162 156 -183 191 -12 21 -213 20 -221 -1z"/>
</g>
</svg>
