<?xml version="1.0" standalone="no"?>
<!DOCTYPE svg PUBLIC "-//W3C//DTD SVG 20010904//EN"
 "http://www.w3.org/TR/2001/REC-SVG-20010904/DTD/svg10.dtd">
<svg version="1.0" xmlns="http://www.w3.org/2000/svg"
 width="686.000000pt" height="686.000000pt" viewBox="0 0 686.000000 686.000000"
 preserveAspectRatio="xMidYMid meet">

<g transform="translate(0.000000,686.000000) scale(0.100000,-0.100000)"
fill="#000000" stroke="none">
<rect width="6860" height="6860" x="0" y="0" fill="#EAAD29" />
<path d="M2585 6110 c-154 -19 -351 -91 -475 -173 -194 -130 -337 -304 -417
-511 -66 -169 -92 -358 -74 -531 36 -338 174 -551 562 -870 159 -131 573 -390
949 -593 167 -90 402 -247 483 -322 21 -19 45 -38 52 -43 19 -10 154 -172 186
-222 100 -155 148 -323 156 -540 5 -135 3 -163 -21 -280 -33 -161 -66 -264
-122 -378 -156 -316 -423 -592 -694 -719 -139 -65 -247 -99 -395 -123 -113
-19 -332 -19 -450 -1 -270 42 -550 155 -774 313 -77 54 -223 172 -233 187 -3
6 -29 36 -58 66 -69 74 -160 195 -210 279 -45 76 -118 239 -139 311 -7 25 -17
55 -22 67 -39 101 -56 432 -30 583 33 197 140 442 255 586 170 213 338 320
561 360 353 62 678 -75 809 -340 77 -156 83 -332 16 -468 -64 -128 -141 -203
-276 -268 l-47 -23 7 -126 c4 -69 9 -127 11 -129 7 -8 110 19 175 45 218 87
376 265 439 494 37 133 28 315 -21 454 -83 234 -286 443 -513 527 -211 79
-452 92 -701 39 -107 -23 -163 -41 -269 -89 -177 -79 -296 -164 -460 -327
-205 -205 -328 -436 -392 -735 -25 -120 -25 -428 0 -555 35 -168 89 -321 161
-450 21 -38 44 -79 50 -90 14 -27 105 -154 127 -180 271 -313 608 -529 1024
-658 83 -25 243 -61 350 -79 106 -17 581 -17 690 0 509 80 931 266 1200 528
92 90 143 152 202 249 49 79 103 192 103 214 0 26 18 8 33 -31 15 -43 158
-484 218 -673 17 -55 36 -106 42 -113 7 -9 35 -12 96 -10 l85 3 37 150 c58
233 133 540 189 770 28 116 73 300 100 410 27 110 72 295 100 410 28 116 57
235 65 265 8 30 31 123 50 205 20 83 43 175 51 205 8 30 41 168 74 305 33 138
67 275 75 305 8 30 31 123 50 205 19 83 42 175 50 205 8 30 31 123 50 205 19
83 41 173 49 200 8 28 42 167 76 310 34 143 68 283 75 310 13 46 23 88 75 305
90 376 113 400 397 400 l143 0 0 95 0 95 -665 0 -665 0 0 -99 0 -98 73 -7
c157 -15 302 -82 375 -175 71 -89 77 -170 27 -380 -14 -58 -37 -151 -50 -206
-13 -55 -40 -172 -60 -260 -20 -88 -42 -185 -50 -215 -8 -30 -26 -107 -40
-170 -15 -63 -37 -160 -50 -215 -13 -55 -38 -163 -55 -240 -32 -139 -64 -278
-100 -430 -91 -386 -114 -485 -120 -515 -4 -19 -28 -125 -54 -235 -70 -299
-124 -531 -176 -757 -36 -154 -69 -296 -82 -352 -5 -21 -13 -35 -17 -30 -4 5
-45 122 -90 259 -235 719 -313 951 -337 1003 -34 71 -85 153 -123 195 -16 18
-40 44 -53 58 -20 24 -58 57 -138 122 -26 22 -166 117 -195 133 -11 6 -49 28
-85 49 -83 47 -211 112 -530 268 -334 164 -523 269 -765 427 -55 36 -176 135
-241 197 -249 241 -368 475 -369 728 0 87 5 126 23 185 56 180 188 331 377
428 261 135 495 119 642 -41 81 -89 119 -173 258 -567 12 -36 38 -110 58 -165
19 -55 54 -154 77 -220 88 -254 114 -299 195 -340 37 -18 78 -27 160 -35 120
-11 238 -13 247 -5 3 4 -9 50 -27 103 -18 53 -89 270 -158 482 -70 212 -154
468 -188 570 -68 208 -83 295 -53 322 35 30 96 38 302 38 l202 0 0 95 0 95
-687 -1 c-379 -1 -715 -5 -748 -9z"/>
</g>
</svg>
